<svg width="1573" height="407" viewBox="0 0 1573 407" fill="none" xmlns="http://www.w3.org/2000/svg">
<path d="M660.959 346.4C639.626 346.4 619.892 342.533 601.759 334.8C583.892 327.067 568.292 316.4 554.959 302.8C541.626 288.933 531.226 273.067 523.759 255.2C516.292 237.067 512.559 217.6 512.559 196.8C512.559 176 516.292 156.667 523.759 138.8C531.226 120.667 541.626 104.8 554.959 91.2C568.292 77.3333 583.892 66.5333 601.759 58.8C619.892 51.0667 639.626 47.2 660.959 47.2C682.292 47.2 701.892 51.0667 719.759 58.8C737.626 66.5333 753.226 77.3333 766.559 91.2C780.159 104.8 790.559 120.667 797.759 138.8C805.226 156.667 808.959 176 808.959 196.8C808.959 217.6 805.226 237.067 797.759 255.2C790.559 273.067 780.159 288.933 766.559 302.8C753.226 316.4 737.626 327.067 719.759 334.8C701.892 342.533 682.292 346.4 660.959 346.4ZM660.959 304.8C680.426 304.8 697.892 300.267 713.359 291.2C729.092 282.133 741.626 269.467 750.959 253.2C760.292 236.933 764.959 218.133 764.959 196.8C764.959 175.2 760.292 156.4 750.959 140.4C741.626 124.133 729.092 111.467 713.359 102.4C697.892 93.3333 680.426 88.8 660.959 88.8C641.759 88.8 624.292 93.3333 608.559 102.4C592.826 111.467 580.292 124.133 570.959 140.4C561.626 156.4 556.959 175.2 556.959 196.8C556.959 218.133 561.626 236.933 570.959 253.2C580.292 269.467 592.826 282.133 608.559 291.2C624.292 300.267 641.759 304.8 660.959 304.8Z" fill="#F2ECE0"></path>
<path d="M831.79 340V136H872.59V166H874.99C878.19 159.067 882.724 152.933 888.59 147.6C894.724 142.267 901.657 138 909.39 134.8C917.39 131.6 925.657 130 934.19 130C939.79 130 944.457 130.4 948.19 131.2C952.19 131.733 955.79 132.667 958.99 134V178.8C953.924 176.667 948.724 174.933 943.39 173.6C938.324 172.267 932.99 171.6 927.39 171.6C917.257 171.6 908.19 174.4 900.19 180C892.457 185.333 886.324 192.533 881.79 201.6C877.257 210.667 874.99 220.8 874.99 232V340H831.79Z" fill="#F2ECE0"></path>
<path d="M969.603 340V136H1012.8V340H969.603ZM991.203 106C983.203 106 976.269 103.2 970.403 97.6C964.803 91.7333 962.003 84.8 962.003 76.8C962.003 68.5333 964.803 61.7333 970.403 56.4C976.269 50.8 983.203 48 991.203 48C999.469 48 1006.4 50.8 1012 56.4C1017.6 61.7333 1020.4 68.5333 1020.4 76.8C1020.4 84.8 1017.6 91.7333 1012 97.6C1006.4 103.2 999.469 106 991.203 106Z" fill="#F2ECE0"></path>
<path d="M1136.16 346.4C1116.16 346.4 1098.3 341.733 1082.56 332.4C1066.83 323.067 1054.43 310.267 1045.36 294C1036.56 277.733 1032.16 259.2 1032.16 238.4C1032.16 218.933 1036.43 200.933 1044.96 184.4C1053.5 167.867 1065.36 154.667 1080.56 144.8C1096.03 134.667 1113.76 129.6 1133.76 129.6C1154.83 129.6 1172.7 134.133 1187.36 143.2C1202.3 152.267 1213.63 164.667 1221.36 180.4C1229.1 196.133 1232.96 213.867 1232.96 233.6C1232.96 236.533 1232.83 239.2 1232.56 241.6C1232.56 244 1232.43 245.867 1232.16 247.2H1056.56V214.8H1190.16C1189.9 209.733 1188.56 204.4 1186.16 198.8C1183.76 192.933 1180.3 187.6 1175.76 182.8C1171.23 178 1165.5 174.133 1158.56 171.2C1151.63 168 1143.5 166.4 1134.16 166.4C1122.43 166.4 1112.03 169.467 1102.96 175.6C1093.9 181.467 1086.83 189.733 1081.76 200.4C1076.7 211.067 1074.16 223.467 1074.16 237.6C1074.16 253.067 1077.1 266 1082.96 276.4C1088.83 286.8 1096.56 294.667 1106.16 300C1115.76 305.333 1126.16 308 1137.36 308C1150.96 308 1162.3 304.933 1171.36 298.8C1180.7 292.4 1188.03 284.533 1193.36 275.2L1228.96 292.4C1220.16 308.4 1208.16 321.467 1192.96 331.6C1177.76 341.467 1158.83 346.4 1136.16 346.4Z" fill="#F2ECE0"></path>
<path d="M1251.87 340V136H1292.67V164H1295.07C1300.94 154.133 1309.6 146 1321.07 139.6C1332.8 132.933 1345.6 129.6 1359.47 129.6C1384.54 129.6 1403.34 137.067 1415.87 152C1428.4 166.667 1434.67 186.4 1434.67 211.2V340H1391.87V216.8C1391.87 200.267 1387.74 188.267 1379.47 180.8C1371.2 173.067 1360.4 169.2 1347.07 169.2C1336.67 169.2 1327.6 172.133 1319.87 178C1312.14 183.6 1306 191.067 1301.47 200.4C1297.2 209.733 1295.07 219.733 1295.07 230.4V340H1251.87Z" fill="#F2ECE0"></path>
<path d="M1442.46 173.6V136H1480.46V173.6H1442.46ZM1540.46 343.2C1521.53 343.2 1506.46 337.6 1495.26 326.4C1484.06 315.2 1478.46 300 1478.46 280.8V78.4H1521.66V271.6C1521.66 282.267 1523.79 290.133 1528.06 295.2C1532.33 300.267 1539.13 302.8 1548.46 302.8C1552.73 302.8 1556.73 302.267 1560.46 301.2C1564.19 299.867 1568.33 297.867 1572.86 295.2V337.2C1567.79 339.067 1562.59 340.533 1557.26 341.6C1551.93 342.667 1546.33 343.2 1540.46 343.2ZM1519.26 173.6V136H1571.26V173.6H1519.26Z" fill="#F2ECE0"></path>
<path d="M203.109 406.218C315.283 406.218 406.218 315.283 406.218 203.109C406.218 90.935 315.283 0 203.109 0C90.935 0 0 90.935 0 203.109C0 315.283 90.935 406.218 203.109 406.218Z" fill="#FF0015"></path>
<path d="M202.649 360.258L197.615 351.858C160.438 289.792 107.846 238.399 44.959 202.631L46.4774 201.749C110.926 163.509 164.648 109.584 202.651 45C221.348 77.2398 244.108 106.934 270.398 133.349C296.702 159.734 326.275 182.647 358.391 201.515L360.316 202.629L358.391 203.67C292.28 239.524 238.141 293.958 202.654 360.26L202.649 360.258Z" fill="white"></path>
</svg>