<svg width="407" height="407" viewBox="0 0 407 407" fill="none" xmlns="http://www.w3.org/2000/svg">
<path d="M203.109 406.218C315.283 406.218 406.218 315.283 406.218 203.109C406.218 90.935 315.283 0 203.109 0C90.935 0 0 90.935 0 203.109C0 315.283 90.935 406.218 203.109 406.218Z" fill="#FF0015"></path>
<path d="M202.649 360.258L197.615 351.858C160.438 289.792 107.846 238.399 44.959 202.631L46.4774 201.749C110.926 163.509 164.648 109.584 202.651 45C221.348 77.2398 244.108 106.934 270.398 133.349C296.702 159.734 326.275 182.647 358.391 201.515L360.316 202.629L358.391 203.67C292.28 239.524 238.141 293.958 202.654 360.26L202.649 360.258Z" fill="white"></path>
</svg>